<svg xmlns="http://www.w3.org/2000/svg" width="735" height="751" viewBox="0 0 735 751" version="1.1"><path d="M 629.500 225.133 C 624.550 227.953, 618.025 231.605, 615 233.249 C 611.975 234.892, 609.050 236.589, 608.500 237.020 C 607.275 237.981, 590.007 247.515, 584.500 250.272 C 582.300 251.373, 578.129 253.788, 575.231 255.637 C 572.332 257.487, 569.763 259, 569.520 259 C 569.277 259, 563.774 261.998, 557.289 265.663 C 550.805 269.328, 542.013 274.278, 537.750 276.663 C 533.487 279.048, 526.513 282.964, 522.250 285.365 C 503.558 295.894, 497.249 299.383, 493.500 301.266 C 491.300 302.370, 487.144 304.778, 484.265 306.615 C 481.385 308.453, 476.435 311.328, 473.265 313.005 C 459.814 320.118, 436.875 332.955, 434.014 334.972 C 432.631 335.946, 429.025 337.978, 426 339.487 C 422.975 340.995, 416.900 344.354, 412.500 346.950 C 408.100 349.545, 396.742 355.906, 387.261 361.085 C 377.779 366.263, 370.016 370.788, 370.011 371.141 C 370.005 371.493, 378.438 376.711, 388.750 382.735 C 399.063 388.759, 412.225 396.552, 418 400.053 C 434.367 409.975, 446.213 417.100, 454.488 422 C 458.668 424.475, 465.105 428.337, 468.794 430.581 C 472.482 432.826, 478.875 436.605, 483 438.980 C 487.125 441.354, 492.750 444.727, 495.500 446.475 C 498.250 448.224, 503.556 451.419, 507.291 453.577 C 517.714 459.599, 533.735 469.181, 547.149 477.417 C 554.480 481.918, 557.807 483.890, 566 488.587 C 569.025 490.321, 574.200 493.365, 577.500 495.350 C 580.800 497.335, 586.325 500.656, 589.779 502.729 C 593.232 504.803, 599.082 508.340, 602.779 510.589 C 606.475 512.838, 615.125 518.041, 622 522.151 C 628.875 526.261, 635.737 530.435, 637.250 531.427 L 640 533.230 640 376.615 C 640 290.477, 639.663 220.001, 639.250 220.002 C 638.837 220.004, 634.450 222.312, 629.500 225.133 M 96.667 221.667 C 96.300 222.033, 96 291.572, 96 376.198 C 96 517.593, 96.132 530.114, 97.632 530.689 C 98.530 531.034, 100.218 530.701, 101.382 529.950 C 102.547 529.199, 111.600 523.748, 121.500 517.838 C 142.067 505.560, 149.228 501.259, 157 496.520 C 160.025 494.675, 165.200 491.636, 168.500 489.766 C 171.800 487.897, 176.975 484.855, 180 483.007 C 183.025 481.158, 188.200 478.005, 191.500 476 C 194.800 473.995, 199.975 470.848, 203 469.007 C 206.025 467.167, 217.275 460.507, 228 454.208 C 238.725 447.909, 250.036 441.123, 253.136 439.127 C 256.235 437.132, 261.132 434.150, 264.018 432.500 C 266.903 430.850, 272.287 427.700, 275.981 425.500 C 279.676 423.300, 284.904 420.197, 287.599 418.604 C 290.295 417.011, 295.200 414.040, 298.500 412.002 C 301.800 409.964, 309 405.686, 314.500 402.495 C 320 399.305, 328.325 394.335, 333 391.452 C 337.675 388.569, 347.295 382.836, 354.377 378.712 C 367.016 371.352, 367.211 371.186, 364.877 369.732 C 363.570 368.917, 355.525 364.439, 347 359.782 C 338.475 355.124, 328.125 349.370, 324 346.995 C 319.875 344.620, 312.450 340.436, 307.500 337.697 C 298.026 332.455, 287.794 326.723, 274.500 319.209 C 270.100 316.722, 264.250 313.571, 261.500 312.207 C 258.750 310.843, 255.227 308.833, 253.672 307.740 C 252.117 306.647, 248.292 304.434, 245.172 302.823 C 242.052 301.212, 236.125 297.955, 232 295.585 C 227.875 293.215, 220.900 289.255, 216.500 286.783 C 208.768 282.441, 204.122 279.811, 186 269.516 C 181.325 266.860, 173.675 262.578, 169 260 C 164.325 257.422, 156.675 253.140, 152 250.484 C 138.096 242.585, 130.120 238.122, 118.500 231.738 C 112.450 228.414, 105.821 224.638, 103.770 223.347 C 99.982 220.964, 97.869 220.464, 96.667 221.667" stroke="none" fill="#cfcfcf" fill-rule="evenodd"/><path d="M 68.500 12.846 C 56.950 19.812, 36.995 31.751, 24.156 39.376 C 5.057 50.719, 1.056 53.469, 2.156 54.499 C 3.571 55.825, 358.820 258.050, 363.399 260.136 C 365.577 261.128, 366.661 261.055, 369.444 259.728 C 375.399 256.889, 728.443 56.825, 729.866 55.484 C 730.998 54.418, 728.684 52.694, 716.366 45.425 C 708.190 40.600, 687.574 28.405, 670.554 18.326 C 653.533 8.247, 639.067 -0, 638.407 -0 C 637.747 -0, 576.592 35.100, 502.506 78 C 428.421 120.900, 366.996 156, 366.007 156 C 365.018 156, 352.349 149.165, 337.854 140.811 C 208.004 65.974, 92.324 0.016, 91.051 0.090 C 90.198 0.139, 80.050 5.879, 68.500 12.846 M 1 267.453 L 1 476.907 3.250 478.536 C 8.937 482.655, 90.626 529.023, 91.764 528.777 C 92.803 528.553, 93.042 498.908, 93.015 373.356 C 92.997 288.026, 93.236 217.550, 93.546 216.741 C 93.971 215.632, 127.485 233.992, 229.589 291.267 C 304.103 333.066, 365.391 366.943, 365.784 366.550 C 366.178 366.156, 366.625 343.762, 366.778 316.784 C 367.015 274.907, 366.840 267.404, 365.580 265.482 C 364.769 264.244, 361.044 261.525, 357.303 259.441 C 349.753 255.234, 59.116 89.981, 24.808 70.388 C 12.878 63.575, 2.640 58, 2.058 58 C 1.317 58, 1 120.809, 1 267.453 M 552.503 160.545 C 453.504 216.884, 371.717 263.654, 370.753 264.480 C 369.125 265.873, 369 269.598, 369 316.607 C 369 364.331, 369.100 367.207, 370.750 366.773 C 372.521 366.307, 636.469 218.559, 638.716 216.776 C 639.385 216.245, 640.402 215.967, 640.976 216.159 C 641.692 216.397, 642.094 265.317, 642.259 372.503 L 642.500 528.500 644.565 528.440 C 646.336 528.389, 724.488 484.110, 732.250 478.759 L 735 476.864 735 267.432 C 735 100.523, 734.746 58.011, 733.750 58.056 C 733.063 58.087, 651.501 104.207, 552.503 160.545 M 236.777 573.138 C 235.761 573.765, 235.445 591.085, 235.233 657.875 C 234.993 733.461, 235.125 741.982, 236.555 743.412 C 237.766 744.623, 240.084 744.976, 246.321 744.900 C 258.824 744.748, 259.441 744.438, 259.805 738.124 L 260.110 732.830 264.913 737.322 C 278.942 750.444, 299.086 752.724, 317.285 743.248 C 329.159 737.066, 337.359 725.369, 340.593 710 C 342.921 698.936, 342.139 676.806, 339.109 668 C 331.505 645.904, 311.875 633.111, 289.122 635.423 C 277.949 636.558, 269.522 641.366, 262.871 650.400 L 260 654.300 260 613.650 C 260 591.293, 259.663 572.942, 259.250 572.871 C 255.943 572.300, 237.783 572.516, 236.777 573.138 M 391 575.592 C 391 576.429, 355.260 735.130, 353.424 742.446 L 352.798 744.942 364.273 744.924 C 371.679 744.912, 376.284 744.479, 377.262 743.703 C 379.242 742.130, 397.927 656.911, 398.026 649 C 398.065 645.899, 398.475 646.468, 401.626 654 C 403.582 658.675, 411.453 675.550, 419.118 691.500 C 426.782 707.450, 436.304 727.340, 440.277 735.700 C 444.249 744.060, 447.852 750.922, 448.281 750.950 C 448.711 750.977, 449.337 750.212, 449.672 749.250 C 450.007 748.288, 459.391 728.825, 470.526 706 C 481.660 683.175, 492.274 660.755, 494.111 656.178 C 495.949 651.601, 497.548 648.226, 497.666 648.678 C 497.783 649.130, 499.047 656.025, 500.474 664 C 501.902 671.975, 505.947 691.100, 509.464 706.500 C 512.982 721.900, 516.150 736.104, 516.506 738.065 C 517.628 744.247, 517.813 744.336, 529.936 744.504 C 537.680 744.612, 541.348 744.286, 542.061 743.426 C 542.780 742.560, 541.010 733.312, 536.113 712.347 C 520.251 644.440, 505.663 581.325, 505.231 578.738 C 504.977 577.219, 504.449 575.777, 504.057 575.535 C 503.666 575.293, 491.005 602.294, 475.923 635.536 C 460.840 668.779, 448.275 695.977, 448 695.976 C 447.725 695.975, 445.958 692.267, 444.074 687.737 C 437.689 672.386, 393.365 577.043, 391.920 575.550 C 391.340 574.951, 391 574.966, 391 575.592 M 1.035 583.934 C -0.548 586.893, -0.388 742.212, 1.200 743.800 C 2.601 745.201, 82.600 745.540, 84.784 744.154 C 85.736 743.550, 85.995 740.383, 85.784 731.920 L 85.500 720.500 57.534 720.234 C 39.971 720.067, 29.183 719.583, 28.534 718.934 C 27.836 718.236, 27.616 696.526, 27.856 652.083 C 28.116 604.071, 27.904 585.689, 27.071 584.133 C 26.004 582.139, 25.154 582, 14 582 C 3.229 582, 1.970 582.188, 1.035 583.934 M 693.172 600.293 C 692.452 601.161, 691.948 608.284, 691.773 620.074 L 691.500 638.500 683 639 L 674.500 639.500 674.500 650 L 674.500 660.500 683.250 660.789 L 692 661.078 692 701.980 C 692 732.991, 692.294 743.064, 693.215 743.633 C 695.235 744.882, 714.981 744.728, 716.037 743.456 C 716.580 742.802, 717.088 725.244, 717.239 701.911 L 717.500 661.500 726 661 L 734.500 660.500 734.500 650 L 734.500 639.500 726 639 L 717.500 638.500 717 619 L 716.500 599.500 705.398 599.219 C 697.002 599.006, 694.023 599.268, 693.172 600.293 M 132 636.539 C 115.547 641.133, 102.871 655.498, 98.450 674.559 C 97.545 678.463, 96.866 685.767, 96.875 691.511 C 96.929 726.383, 112.928 746.666, 142 748.718 C 154.989 749.635, 164.487 746.227, 174.250 737.145 L 179 732.726 179 738.363 C 179 741.463, 179.338 744.055, 179.750 744.123 C 180.162 744.191, 185.336 744.351, 191.247 744.479 C 198.732 744.641, 202.301 744.342, 203.006 743.493 C 203.668 742.696, 203.929 724.467, 203.759 690.887 L 203.500 639.500 191.500 639.500 L 179.500 639.500 179.204 646.852 L 178.908 654.204 175.946 649.733 C 170.203 641.062, 159.629 635.996, 146 635.385 C 140.335 635.131, 135.665 635.516, 132 636.539 M 595.500 636.494 C 582.569 639.371, 571.658 646.416, 564.417 656.563 C 551.306 674.938, 549.952 704.885, 561.353 724.339 C 570.762 740.395, 591.562 750.182, 613.034 748.658 C 629.124 747.516, 641.276 741.913, 651.538 730.904 C 658.605 723.322, 661.534 718.349, 660.012 716.514 C 658.232 714.370, 644.383 707, 642.132 707 C 640.948 707, 638.785 708.884, 636.678 711.750 C 627.898 723.694, 613.567 728.612, 599.425 724.536 C 589.020 721.536, 580 709.626, 580 698.885 L 580 696 620.378 696 C 653.934 696, 660.953 695.761, 661.927 694.588 C 663.365 692.855, 662.487 680.286, 660.315 671.500 C 655.829 653.355, 642.090 640.668, 622.412 636.499 C 613.976 634.712, 603.519 634.710, 595.500 636.494 M 145.326 658.023 C 136.591 659.795, 130.292 665.023, 126.083 673.994 C 123.720 679.030, 123.500 680.610, 123.500 692.500 C 123.500 706.977, 124.709 711.182, 130.900 718.233 C 140.201 728.827, 159.036 729.120, 169.664 718.836 C 179.112 709.694, 182.135 687.484, 175.904 672.998 C 171.131 661.903, 157.971 655.458, 145.326 658.023 M 281.500 657.938 C 266.754 661.544, 259.261 674.204, 260.210 693.911 C 260.946 709.204, 266.078 718.445, 276.728 723.655 C 286.848 728.607, 300.013 726.779, 307.399 719.397 C 312.933 713.866, 315.391 706.710, 315.824 694.872 C 316.438 678.096, 312.589 668.150, 303.139 662.092 C 296.272 657.690, 288.565 656.211, 281.500 657.938 M 597.748 658.370 C 591.578 660.665, 587.349 664.614, 584.103 671.110 C 582.416 674.486, 581.279 677.643, 581.577 678.124 C 581.874 678.606, 594.241 679, 609.059 679 L 636 679 636 676.206 C 636 674.669, 634.538 670.978, 632.750 668.005 C 628.113 660.290, 622.725 657.680, 610.604 657.277 C 604.579 657.076, 600.231 657.446, 597.748 658.370" stroke="none" fill="#546690" fill-rule="evenodd"/></svg>