<svg version="1.0" xmlns="http://www.w3.org/2000/svg" width="1080.000000pt" height="1080.000000pt" viewBox="0 0 1080.000000 1080.000000" preserveAspectRatio="xMidYMid meet">

<g transform="translate(0.000000,1080.000000) scale(0.100000,-0.100000)" fill="#ffffff" stroke="none">
<path d="M7145 9779 c-22 -17 -84 -60 -138 -96 -54 -36 -101 -71 -103 -77 -3 -7 21 -55 53 -106 31 -52 96 -175 145 -272 420 -841 562 -1726 399 -2498 -103 -485 -319 -930 -653 -1342 -127 -158 -455 -480 -630 -621 l-147 -118 42 -57 c23 -31 74 -99 112 -149 l69 -93 26 17 c54 35 222 174 360 299 833 751 1260 1664 1263 2704 2 570 -127 1176 -375 1754 -118 275 -335 678 -369 683 -7 2 -32 -11 -54 -28z" fill="#ffffff"/>
<path d="M603 5558 c-141 -85 -151 -93 -141 -112 27 -54 243 -372 313 -461 355 -456 720 -782 1155 -1032 437 -251 938 -403 1460 -443 757 -57 1565 99 2333 450 37 17 70 37 73 44 4 11 -160 326 -170 326 -1 0 -58 -25 -125 -55 -363 -163 -807 -296 -1166 -349 -258 -39 -295 -41 -630 -41 -338 0 -360 2 -605 41 -471 77 -986 310 -1378 623 -337 269 -665 648 -910 1049 -17 28 -37 52 -44 52 -7 -1 -81 -42 -165 -92z" fill="#ffffff"/>
<path d="M2907 4920 c-88 -23 -163 -84 -208 -170 -20 -37 -24 -60 -24 -130 0 -98 19 -144 86 -211 65 -65 117 -84 229 -84 84 0 101 3 146 27 108 57 167 151 167 267 1 119 -60 219 -168 272 -70 34 -160 46 -228 29z" fill="#ffffff"/>
<path d="M3958 3149 c-125 -18 -243 -101 -298 -209 -48 -95 -50 -118 -50 -1002 l0 -828 190 0 190 0 6 26 c4 15 5 376 2 803 -6 827 -6 815 41 841 35 18 98 12 126 -12 15 -14 63 -105 121 -233 144 -316 232 -509 334 -730 50 -110 122 -267 158 -350 80 -181 132 -253 220 -305 144 -87 372 -97 527 -24 84 39 130 86 177 181 l43 86 3 864 3 863 -193 -2 -193 -3 -1 -809 c-2 -789 -2 -809 -21 -828 -28 -27 -92 -34 -131 -14 -34 18 -47 38 -127 216 -29 63 -135 295 -235 515 -101 220 -213 466 -250 548 -82 180 -125 251 -185 306 -101 93 -263 129 -457 100z" fill="#ffffff"/>
<path d="M763 3104 c-18 -9 -43 -33 -55 -53 l-23 -36 0 -895 c0 -882 0 -895 20 -930 12 -19 36 -43 55 -55 34 -19 53 -20 525 -23 516 -3 633 3 754 40 201 61 335 200 371 385 19 95 9 275 -19 346 -29 73 -103 163 -170 206 -28 18 -51 34 -51 35 0 2 22 17 50 35 147 95 219 280 190 491 -26 192 -112 316 -274 395 -143 70 -129 69 -766 72 -516 3 -578 2 -607 -13z m1142 -383 c80 -37 125 -111 125 -206 0 -109 -47 -174 -148 -205 -59 -18 -94 -20 -443 -20 l-379 0 0 225 0 225 403 0 c370 0 405 -2 442 -19z m-71 -761 c88 -14 142 -44 172 -96 32 -54 42 -147 24 -214 -15 -55 -79 -123 -135 -141 -29 -9 -147 -14 -437 -16 l-398 -4 0 240 0 241 358 0 c196 0 383 -4 416 -10z" fill="#ffffff"/>
<path d="M2792 2118 l3 -1003 188 -3 187 -2 0 1005 0 1005 -190 0 -190 0 2 -1002z" fill="#ffffff"/>
<path d="M6825 3109 c-85 -12 -188 -45 -269 -86 -294 -148 -436 -441 -436 -903 0 -619 258 -946 787 -1001 156 -16 546 -7 632 15 169 43 311 157 369 297 44 107 66 240 58 359 -12 191 -54 298 -155 400 -93 92 -163 118 -361 132 -158 11 -497 5 -512 -10 -5 -5 -7 -78 -6 -163 l3 -154 270 -5 c290 -5 302 -8 351 -62 42 -46 54 -83 54 -172 0 -47 -5 -97 -11 -113 -19 -53 -61 -102 -103 -123 -39 -19 -61 -20 -320 -20 -355 0 -417 14 -526 116 -55 52 -92 120 -122 229 -19 70 -22 104 -21 275 0 166 3 207 21 272 52 192 150 292 326 332 56 13 147 16 531 16 432 0 465 1 474 18 5 9 8 94 8 187 l-2 170 -490 1 c-269 1 -517 -2 -550 -7z" fill="#ffffff"/>
<path d="M8968 3110 c-265 -41 -469 -174 -581 -380 -89 -161 -127 -348 -127 -615 0 -296 45 -486 156 -658 98 -152 253 -258 443 -307 234 -59 721 -53 926 11 289 90 465 296 537 631 18 88 22 134 22 323 0 191 -3 234 -23 325 -60 283 -200 480 -415 585 -164 81 -205 88 -566 91 -173 1 -341 -1 -372 -6z m657 -390 c131 -34 205 -89 263 -198 101 -191 104 -594 4 -800 -29 -59 -108 -140 -170 -171 -87 -45 -140 -51 -420 -51 -285 0 -337 7 -434 56 -96 49 -168 150 -202 284 -51 206 -32 520 40 664 52 104 111 158 213 197 90 33 122 37 382 38 215 1 255 -1 324 -19z" fill="#ffffff"/>
</g>
</svg>